<?xml version="1.0" encoding="UTF-8" standalone="no"?>
<svg
   width="400"
   height="400"
   viewBox="0 0 400 400"
   fill="none"
   version="1.1"
   id="svg8"
   sodipodi:docname="CACEE_Crest.svg.svg"
   inkscape:export-filename="CACEE_Crest.svg.png"
   inkscape:export-xdpi="96"
   inkscape:export-ydpi="96"
   xmlns:inkscape="http://www.inkscape.org/namespaces/inkscape"
   xmlns:sodipodi="http://sodipodi.sourceforge.net/DTD/sodipodi-0.dtd"
   xmlns="http://www.w3.org/2000/svg"
   xmlns:svg="http://www.w3.org/2000/svg">
  <defs
     id="defs8" />
  <sodipodi:namedview
     id="namedview8"
     pagecolor="#ffffff"
     bordercolor="#000000"
     borderopacity="0.25"
     inkscape:showpageshadow="2"
     inkscape:pageopacity="0.0"
     inkscape:pagecheckerboard="0"
     inkscape:deskcolor="#d1d1d1" />
  <rect
     width="400"
     height="400"
     fill="#050505"
     id="rect1" />
  <path
     d="M 200,9.9631306 373.24273,105.39668 V 296.26379 L 200,391.69734 26.757267,296.26379 V 105.39668 Z"
     stroke="#333333"
     stroke-width="3.90809"
     stroke-linejoin="bevel"
     fill="none"
     id="path1" />
  <g
     transform="translate(99.504337,81.164808)"
     id="g7">
    <rect
       x="90"
       y="40"
       width="20"
       height="120"
       fill="#fdfdfd"
       id="rect2" />
    <circle
       cx="100"
       cy="70"
       r="50"
       stroke="#ffbf00"
       stroke-width="4"
       fill="#0a0a0a"
       id="circle2" />
    <circle
       cx="100"
       cy="70"
       r="15"
       fill="#ffbf00"
       id="circle3" />
    <circle
       cx="100"
       cy="70"
       r="5"
       fill="#050505"
       id="circle4" />
    <path
       d="m 100,20 v 20 m 0,60 v 20 M 50,70 h 20 m 60,0 h 20"
       stroke="#ffbf00"
       stroke-width="2"
       id="path4" />
    <path
       d="m 65,35 14,14 m 42,42 14,14 m -70,0 14,-14 m 42,-42 14,-14"
       stroke="#fdfdfd"
       stroke-width="1.5"
       stroke-opacity="0.5"
       id="path5" />
    <rect
       x="60"
       y="140"
       width="80"
       height="40"
       stroke="#fdfdfd"
       stroke-width="2"
       fill="none"
       id="rect5" />
    <line
       x1="100"
       y1="140"
       x2="100"
       y2="180"
       stroke="#fdfdfd"
       stroke-width="2"
       id="line5" />
    <line
       x1="60"
       y1="160"
       x2="140"
       y2="160"
       stroke="#fdfdfd"
       stroke-width="2"
       id="line6" />
    <circle
       cx="80"
       cy="150"
       r="3"
       fill="#ffbf00"
       id="circle6" />
    <circle
       cx="120"
       cy="170"
       r="3"
       fill="#ffbf00"
       id="circle7" />
  </g>
  <text
     x="201.48698"
     y="295.56381"
     fill="#fdfdfd"
     font-family="'JetBrains Mono', monospace"
     font-size="32px"
     font-weight="bold"
     text-anchor="middle"
     letter-spacing="4"
     id="text7">CACEE</text>
  <text
     x="207.93062"
     y="312.13754"
     fill="#888888"
     font-family="'JetBrains Mono', monospace"
     font-size="12px"
     text-anchor="middle"
     letter-spacing="1"
     id="text8">CYBER EPISTEMOLOGY &amp; EMULATION</text>
</svg>
