<svg width="400" height="400" viewBox="0 0 400 400" fill="none" xmlns="http://www.w3.org/2000/svg">
  <rect width="400" height="400" fill="#050505"/>
  
  <path d="M200 10L373.2 110V310L200 410L26.8 310V110L200 10Z" stroke="#333333" stroke-width="4" stroke-linejoin="bevel" fill="none"/>
  
  <g transform="translate(100, 100)">
    <rect x="90" y="40" width="20" height="120" fill="#FDFDFD"/>
    
    <circle cx="100" cy="70" r="50" stroke="#FFBF00" stroke-width="4" fill="#0A0A0A"/>
    <circle cx="100" cy="70" r="15" fill="#FFBF00"/>
    <circle cx="100" cy="70" r="5" fill="#050505"/>
    
    <path d="M100 20V40 M100 100V120 M50 70H70 M130 70H150" stroke="#FFBF00" stroke-width="2"/>
    <path d="M65 35L79 49 M121 91L135 105 M65 105L79 91 M121 49L135 35" stroke="#FDFDFD" stroke-width="1.5" stroke-opacity="0.5"/>

    <rect x="60" y="140" width="80" height="40" stroke="#FDFDFD" stroke-width="2" fill="none"/>
    <line x1="100" y1="140" x2="100" y2="180" stroke="#FDFDFD" stroke-width="2"/>
    <line x1="60" y1="160" x2="140" y2="160" stroke="#FDFDFD" stroke-width="2"/>
    
    <circle cx="80" cy="150" r="3" fill="#FFBF00"/>
    <circle cx="120" cy="170" r="3" fill="#FFBF00"/>
  </g>

  <text x="200" y="360" fill="#FDFDFD" font-family="'JetBrains Mono', monospace" font-size="32" font-weight="bold" text-anchor="middle" letter-spacing="4">CACEE</text>
  <text x="200" y="385" fill="#888888" font-family="'JetBrains Mono', monospace" font-size="12" text-anchor="middle" letter-spacing="1">CYBER EPISTEMOLOGY &amp; EMULATION</text>
</svg>
